<svg width="41" height="41" viewBox="0 0 41 41" fill="none" xmlns="http://www.w3.org/2000/svg">
<path fill-rule="evenodd" clip-rule="evenodd" d="M36.0455 0.246582C38.7427 0.246582 40.9325 2.43643 40.9325 5.13361V35.3596C40.9325 38.0567 38.7427 40.2466 36.0455 40.2466H5.81953C3.12234 40.2466 0.932495 38.0567 0.932495 35.3596V5.13361C0.932495 2.43643 3.12226 0.246582 5.81953 0.246582L36.0455 0.246582ZM36.5334 26.0791C36.6051 24.9991 36.5171 23.968 36.2671 22.9806C36.0148 21.9917 35.6102 21.1099 35.0437 20.3392C34.4763 19.567 33.7537 18.9501 32.8735 18.4945C31.9888 18.0329 30.9584 17.8066 29.7809 17.8066C28.7143 17.8066 27.7512 17.996 26.8777 18.3724C26.0049 18.7511 25.2556 19.2689 24.6232 19.925C23.9923 20.5774 23.5115 21.3555 23.1653 22.2572C22.8251 23.1559 22.6512 24.1278 22.6512 25.1685C22.6512 26.2447 22.8184 27.2381 23.1505 28.1353C23.4863 29.037 23.9575 29.8048 24.5641 30.4542C25.1869 31.1014 25.9265 31.597 26.8119 31.9513C27.698 32.3004 28.6848 32.4779 29.7809 32.4779C31.3542 32.4779 32.7034 32.1177 33.8106 31.395C34.9312 30.6746 35.7516 29.4785 36.293 27.8032H32.926C32.7958 28.2337 32.4585 28.6487 31.9045 29.037C31.3453 29.426 30.6796 29.6206 29.9089 29.6206C28.8363 29.6206 28.0087 29.3396 27.4355 28.7803C26.8615 28.2211 26.4902 27.1797 26.4902 26.0791H36.5334ZM14.6229 32.1177C15.4854 32.1177 16.3264 32.009 17.1362 31.7945C17.9559 31.5792 18.6859 31.2478 19.3227 30.7974C19.9544 30.3506 20.467 29.7715 20.8435 29.057C21.217 28.3506 21.4034 27.5118 21.4034 26.5369C21.4034 25.3342 21.1172 24.309 20.5336 23.4517C19.953 22.6004 19.0757 22.002 17.8944 21.6617C18.7621 21.2505 19.4123 20.7217 19.8545 20.0767C20.2947 19.4302 20.5136 18.6217 20.5136 17.6542C20.5136 16.7599 20.3664 16.0033 20.0742 15.399C19.7739 14.7858 19.3545 14.2991 18.8191 13.9329C18.2746 13.5668 17.6319 13.2998 16.8774 13.14C16.1192 12.9751 15.2893 12.896 14.3699 12.896H5.3075V32.1177H14.6229ZM14.1406 23.5509C15.0512 23.5509 15.7916 23.7602 16.3478 24.1818C16.9018 24.6086 17.1814 25.3128 17.1814 26.3031C17.1814 26.8084 17.0993 27.2271 16.9284 27.5496C16.7583 27.8735 16.5231 28.1294 16.2405 28.3158C15.9565 28.5096 15.6214 28.6413 15.2427 28.7234C14.8699 28.807 14.4734 28.8439 14.057 28.8439H9.53914V23.5509H14.1406ZM31.8284 21.4672C31.3734 20.965 30.6049 20.6928 29.6662 20.6928C29.0553 20.6928 28.5501 20.7956 28.1448 21.0049C27.7483 21.2121 27.4244 21.4687 27.1766 21.772C26.9295 22.0796 26.7623 22.4051 26.664 22.7528C26.5663 23.0915 26.5072 23.3985 26.4902 23.6699H32.7093C32.6183 22.6951 32.2847 21.9739 31.8284 21.4672ZM13.4993 16.1704C13.8744 16.1705 14.2391 16.1971 14.5881 16.2651C14.9424 16.3265 15.2487 16.4389 15.5194 16.6024C15.7916 16.7599 16.0083 16.9841 16.1717 17.2711C16.3293 17.5581 16.4069 17.9279 16.4069 18.3746C16.4069 19.1809 16.1717 19.7674 15.6851 20.1232C15.1932 20.4842 14.5719 20.6617 13.8226 20.6617H9.53914V16.1704H13.4993ZM33.4992 16.0824V14.1859H25.7076V16.0824H33.4992Z" fill="#008043"/>
</svg>
