<svg width="82" height="82" viewBox="0 0 82 82" fill="none" xmlns="http://www.w3.org/2000/svg">
<path d="M75.7626 11.6374H60.4165V7.52393H22.4479V11.6374H7.10242C6.51501 11.6374 5.95168 11.8708 5.53632 12.2862C5.12097 12.7015 4.88761 13.2649 4.88757 13.8523V27.0234C4.89269 31.5006 6.6735 35.7929 9.83934 38.9588C13.0052 42.1246 17.2975 43.9054 21.7747 43.9105H27.0228C30.1227 47.5382 34.4782 49.8615 39.2177 50.4154V65.1097L24.8209 73.9692H58.0436L43.6473 65.11V50.4154C48.3866 49.8613 52.7418 47.538 55.8416 43.9105H61.0903C65.5674 43.9054 69.8598 42.1246 73.0256 38.9588C76.1915 35.793 77.9723 31.5006 77.9774 27.0234V13.8523C77.9774 13.2649 77.744 12.7015 77.3287 12.2862C76.9133 11.8708 76.35 11.6374 75.7626 11.6374ZM21.7747 39.4809C18.4719 39.4771 15.3055 38.1634 12.9701 35.828C10.6347 33.4926 9.32103 30.3262 9.31726 27.0234V16.0671H22.4479V31.5709C22.4498 34.3025 23.0443 37.0013 24.1904 39.4809H21.7747ZM48.2766 37.0405L41.4322 33.4423L34.588 37.0406L35.8951 29.4194L30.358 24.0221L38.0102 22.9101L41.4322 15.9762L44.8544 22.9101L52.5065 24.022L46.9694 29.4194L48.2766 37.0405ZM73.5477 27.0234C73.544 30.3262 72.2303 33.4926 69.8949 35.828C67.5595 38.1634 64.3931 39.4771 61.0903 39.4809H58.674C59.8202 37.0013 60.4147 34.3025 60.4165 31.5709V16.0671H73.5477V27.0234Z" fill="white"/>
</svg>
