<svg width="48" height="48" viewBox="0 0 48 48" fill="none" xmlns="http://www.w3.org/2000/svg">
<mask id="mask0_1_99" style="mask-type:alpha" maskUnits="userSpaceOnUse" x="0" y="0" width="48" height="48">
<rect width="48" height="48" fill="#D9D9D9"/>
</mask>
<g mask="url(#mask0_1_99)">
<path d="M24 41.9501L21.95 40.1C18.4244 36.8627 15.5097 34.07 13.2058 31.722C10.9019 29.374 9.06667 27.275 7.7 25.425C6.33333 23.575 5.375 21.9 4.825 20.4C4.275 18.9 4 17.3834 4 15.85C4 12.8449 5.00833 10.3353 7.025 8.3212C9.04167 6.3071 11.5333 5.30005 14.5 5.30005C16.4 5.30005 18.1583 5.75005 19.775 6.65005C21.3917 7.55005 22.8 8.85005 24 10.55C25.4 8.75005 26.8833 7.42505 28.45 6.57505C30.0167 5.72505 31.7 5.30005 33.5 5.30005C36.4667 5.30005 38.9583 6.3071 40.975 8.3212C42.9917 10.3353 44 12.8449 44 15.85C44 17.3834 43.725 18.9 43.175 20.4C42.625 21.9 41.6667 23.575 40.3 25.425C38.9333 27.275 37.0981 29.374 34.7942 31.722C32.4903 34.07 29.5756 36.8627 26.05 40.1L24 41.9501ZM24 38C27.3745 34.9002 30.1515 32.2419 32.3309 30.0252C34.5103 27.8084 36.2417 25.8667 37.525 24.2C38.8083 22.5334 39.7083 21.0478 40.225 19.7433C40.7417 18.4388 41 17.1434 41 15.8573C41 13.6525 40.3 11.8417 38.9 10.425C37.5 9.00838 35.7037 8.30005 33.5112 8.30005C31.7938 8.30005 30.2042 8.82505 28.7425 9.87505C27.2808 10.925 26.1 12.4 25.2 14.3H22.75C21.8833 12.4334 20.7192 10.9667 19.2575 9.90005C17.7958 8.83338 16.2062 8.30005 14.4887 8.30005C12.2962 8.30005 10.5 9.00838 9.1 10.425C7.7 11.8417 7 13.6553 7 15.8658C7 17.1553 7.25833 18.4584 7.775 19.775C8.29167 21.0917 9.19167 22.5917 10.475 24.275C11.7583 25.9584 13.5 27.9 15.7 30.1C17.9 32.3001 20.6667 34.9334 24 38Z" fill="white"/>
</g>
</svg>
