<svg width="55" height="55" viewBox="0 0 55 55" fill="none" xmlns="http://www.w3.org/2000/svg">
<g clip-path="url(#clip0_16_47)">
<path d="M24.526 14.0419L16.6581 1.06607C16.4471 0.557609 15.8987 0.246582 15.3081 0.246582H2.62335C1.25753 0.246582 0.458072 1.78432 1.24171 2.90229L12.9804 19.6613C16.1096 16.7419 20.0964 14.7274 24.526 14.0419ZM27.9327 17.1216C17.6758 17.1216 9.37018 25.4272 9.37018 35.6841C9.37018 45.9409 17.6811 54.2466 27.9327 54.2466C38.1842 54.2466 46.4952 45.9409 46.4952 35.6841C46.4952 25.4272 38.1948 17.1216 27.9327 17.1216ZM37.6885 33.7118L33.6934 37.6142L34.6294 43.1249C34.8008 44.1005 33.7593 44.8651 32.8755 44.3905L27.9311 41.7939L22.9862 44.3853C22.1029 44.8599 21.0614 44.0952 21.2323 43.1196L22.1683 37.6089L18.1731 33.7065C17.4491 33.0052 17.8604 31.7817 18.8518 31.6341L24.3763 30.8299L26.8464 25.8228C27.0573 25.3745 27.4923 25.1504 27.9274 25.1504C28.3625 25.1504 28.7975 25.3798 29.0085 25.8228L31.487 30.8325L37.0114 31.6367C38.0155 31.7817 38.4163 33.0052 37.6885 33.7118ZM53.1503 0.246582H40.5573C39.9644 0.246582 39.4151 0.557609 39.1103 1.06607L31.3309 13.9438C35.7606 14.6294 39.7557 16.6459 42.8797 19.5737L54.6184 2.81475C55.4073 1.78432 54.6057 0.246582 53.1503 0.246582Z" fill="white"/>
</g>
<defs>
<clipPath id="clip0_16_47">
<rect width="54" height="54" fill="white" transform="translate(0.932495 0.246582)"/>
</clipPath>
</defs>
</svg>
