<svg width="307" height="20" viewBox="0 0 307 20" fill="none" xmlns="http://www.w3.org/2000/svg">
<path d="M3.87213 15.5023C3.18084 15.5023 2.57478 15.3721 2.05394 15.1116C1.53311 14.8465 1.14722 14.4653 0.896274 13.9682C0.645327 13.4663 0.576671 12.8602 0.690308 12.15C0.799209 11.525 1.00991 11.0184 1.32241 10.6301C1.63491 10.2371 2.0137 9.92935 2.45877 9.70681C2.90858 9.47954 3.39154 9.31145 3.90764 9.20255C4.42847 9.08891 4.94694 9.00132 5.46304 8.93976C6.13538 8.85454 6.68226 8.78825 7.10366 8.7409C7.52506 8.69355 7.8423 8.61543 8.05536 8.50653C8.26843 8.39762 8.39864 8.2106 8.44599 7.94545V7.88863C8.55963 7.1926 8.4673 6.65046 8.169 6.26221C7.87071 5.86921 7.33803 5.67272 6.57099 5.67272C5.77553 5.67272 5.11029 5.84791 4.57525 6.19829C4.04021 6.54867 3.64485 6.92272 3.38917 7.32045L1.9119 6.75226C2.30016 6.08938 2.76417 5.57329 3.30394 5.20397C3.84372 4.82991 4.40953 4.5695 5.00139 4.42272C5.59324 4.2712 6.16379 4.19545 6.71304 4.19545C7.06341 4.19545 7.45877 4.23806 7.89911 4.32329C8.33946 4.40378 8.75139 4.57187 9.13491 4.82755C9.52317 5.08323 9.81436 5.46912 10.0085 5.98522C10.2074 6.50132 10.2358 7.1926 10.0937 8.05908L8.90054 15.2466H7.2244L7.48008 13.7693H7.39485C7.24334 14.0061 7.01133 14.2594 6.69883 14.5293C6.39107 14.7991 6.00044 15.0288 5.52696 15.2182C5.05821 15.4076 4.5066 15.5023 3.87213 15.5023ZM4.35508 13.9966C5.01796 13.9966 5.59798 13.8664 6.09514 13.606C6.59703 13.3455 6.99949 13.0094 7.30252 12.5974C7.61029 12.1855 7.80205 11.7523 7.87781 11.2977L8.13349 9.76363C8.04826 9.84885 7.88018 9.92698 7.62923 9.998C7.37828 10.0643 7.09419 10.1235 6.77696 10.1756C6.46446 10.2229 6.15906 10.2655 5.86076 10.3034C5.5672 10.3365 5.33046 10.365 5.15054 10.3886C4.70546 10.4454 4.28169 10.5378 3.87923 10.6656C3.4815 10.7887 3.14533 10.9757 2.87071 11.2267C2.60082 11.4729 2.43273 11.8091 2.36644 12.2352C2.26701 12.8176 2.40669 13.2579 2.78548 13.5562C3.16427 13.8498 3.68747 13.9966 4.35508 13.9966ZM14.7155 8.68408L13.636 15.2466H11.9598L13.778 4.33749H15.3973L15.1132 6.04204H15.2553C15.5962 5.48806 16.0579 5.04298 16.6402 4.70681C17.2226 4.3659 17.9257 4.19545 18.7496 4.19545C19.4788 4.19545 20.0943 4.34696 20.5962 4.64999C21.1028 4.94829 21.4603 5.40283 21.6686 6.01363C21.8817 6.61969 21.9125 7.38673 21.761 8.31476L20.5962 15.2466H18.9201L20.0564 8.4284C20.1985 7.57613 20.0872 6.90851 19.7226 6.42556C19.3628 5.9426 18.7922 5.70113 18.011 5.70113C17.4712 5.70113 16.9717 5.81713 16.5124 6.04914C16.0579 6.28115 15.672 6.61969 15.3547 7.06476C15.0422 7.50984 14.8292 8.04961 14.7155 8.68408ZM27.7642 15.4739C26.8503 15.4739 26.0833 15.2442 25.463 14.7849C24.8428 14.3209 24.4048 13.6675 24.1491 12.8247C23.8982 11.9772 23.8674 10.9757 24.0568 9.82045C24.2509 8.67461 24.6131 7.68029 25.1434 6.83749C25.6785 5.99469 26.3342 5.34365 27.1108 4.88437C27.8873 4.42509 28.7348 4.19545 29.6534 4.19545C30.3636 4.19545 30.9057 4.31382 31.2798 4.55056C31.6586 4.78257 31.9332 5.04772 32.1037 5.34601C32.2741 5.63957 32.4043 5.88105 32.4943 6.07045H32.6363L33.5312 0.701127H35.2074L32.7926 15.2466H31.1733L31.4574 13.5704H31.2585C31.1022 13.7693 30.8844 14.0203 30.6051 14.3233C30.3257 14.6216 29.9564 14.8891 29.4971 15.1258C29.0426 15.3579 28.4649 15.4739 27.7642 15.4739ZM28.1761 13.9682C28.8485 13.9682 29.4498 13.793 29.9801 13.4426C30.5151 13.0875 30.9602 12.5974 31.3153 11.9724C31.6704 11.3427 31.9166 10.6159 32.0539 9.79204C32.1913 8.97764 32.1865 8.26505 32.0397 7.65425C31.893 7.03872 31.6112 6.5605 31.1946 6.21959C30.7779 5.87395 30.2263 5.70113 29.5397 5.70113C28.8342 5.70113 28.2211 5.88342 27.7003 6.248C27.1794 6.60785 26.7556 7.09791 26.4289 7.71817C26.1022 8.3337 25.875 9.02499 25.7471 9.79204C25.6193 10.5686 25.6169 11.274 25.74 11.9085C25.8631 12.5382 26.1235 13.0401 26.5213 13.4142C26.9237 13.7835 27.4753 13.9682 28.1761 13.9682ZM36.0809 15.2466L37.8991 4.33749H39.5184L39.2343 5.98522H39.348C39.6321 5.44545 40.0653 5.00747 40.6477 4.6713C41.2301 4.33512 41.848 4.16704 42.5014 4.16704C42.6292 4.16704 42.7831 4.1694 42.963 4.17414C43.143 4.17414 43.2826 4.18124 43.3821 4.19545L43.098 5.89999C43.0412 5.88579 42.9133 5.86448 42.7145 5.83607C42.5156 5.80293 42.3025 5.78635 42.0753 5.78635C41.5449 5.78635 41.0549 5.89762 40.6051 6.12016C40.1553 6.33796 39.7788 6.64099 39.4758 7.02925C39.1728 7.41277 38.9787 7.85075 38.8934 8.34317L37.7571 15.2466H36.0809ZM47.7748 15.4739C46.7284 15.4739 45.8643 15.2418 45.1825 14.7778C44.5007 14.3091 44.0248 13.6557 43.7549 12.8176C43.4851 11.9748 43.4424 10.9947 43.6271 9.87726C43.8118 8.75984 44.1787 7.77499 44.7279 6.92272C45.2772 6.06571 45.9614 5.3981 46.7805 4.91988C47.5996 4.43692 48.4993 4.19545 49.4794 4.19545C50.0476 4.19545 50.5944 4.29014 51.12 4.47954C51.6456 4.66893 52.1001 4.9767 52.4836 5.40283C52.8672 5.82423 53.1347 6.38295 53.2862 7.07897C53.4377 7.77499 53.4282 8.632 53.2578 9.64999L53.1441 10.3602H44.7351L44.9623 8.91135H51.6669C51.7758 8.29582 51.7474 7.74658 51.5816 7.26363C51.4207 6.78067 51.1389 6.39952 50.7365 6.12016C50.3387 5.84081 49.8345 5.70113 49.2237 5.70113C48.594 5.70113 48.0068 5.87158 47.4623 6.21249C46.9178 6.54866 46.4633 6.9748 46.0987 7.4909C45.7341 8.00226 45.5068 8.5231 45.4169 9.0534L45.218 10.3034C45.076 11.2078 45.0973 11.9275 45.2819 12.4625C45.4713 12.9975 45.8004 13.3834 46.2691 13.6202C46.7379 13.8522 47.325 13.9682 48.0305 13.9682C48.4803 13.9682 48.8946 13.9066 49.2734 13.7835C49.6522 13.6557 49.9907 13.4663 50.289 13.2153C50.5873 12.9597 50.8383 12.6424 51.0419 12.2636L52.576 12.7182C52.3155 13.2674 51.9486 13.7504 51.4751 14.167C51.0064 14.579 50.4571 14.9009 49.8274 15.1329C49.2024 15.3602 48.5182 15.4739 47.7748 15.4739ZM58.0909 15.5023C57.3996 15.5023 56.7935 15.3721 56.2727 15.1116C55.7519 14.8465 55.366 14.4653 55.115 13.9682C54.8641 13.4663 54.7954 12.8602 54.9091 12.15C55.018 11.525 55.2287 11.0184 55.5412 10.6301C55.8537 10.2371 56.2324 9.92935 56.6775 9.70681C57.1273 9.47954 57.6103 9.31145 58.1264 9.20255C58.6472 9.08891 59.1657 9.00132 59.6818 8.93976C60.3541 8.85454 60.901 8.78825 61.3224 8.7409C61.7438 8.69355 62.061 8.61543 62.2741 8.50653C62.4872 8.39762 62.6174 8.2106 62.6647 7.94545V7.88863C62.7784 7.1926 62.686 6.65046 62.3878 6.26221C62.0895 5.86921 61.5568 5.67272 60.7897 5.67272C59.9943 5.67272 59.329 5.84791 58.794 6.19829C58.259 6.54867 57.8636 6.92272 57.6079 7.32045L56.1306 6.75226C56.5189 6.08938 56.9829 5.57329 57.5227 5.20397C58.0625 4.82991 58.6283 4.5695 59.2201 4.42272C59.812 4.2712 60.3825 4.19545 60.9318 4.19545C61.2822 4.19545 61.6775 4.23806 62.1179 4.32329C62.5582 4.40378 62.9701 4.57187 63.3537 4.82755C63.7419 5.08323 64.0331 5.46912 64.2272 5.98522C64.4261 6.50132 64.4545 7.1926 64.3125 8.05908L63.1193 15.2466H61.4431L61.6988 13.7693H61.6136C61.4621 14.0061 61.2301 14.2594 60.9176 14.5293C60.6098 14.7991 60.2192 15.0288 59.7457 15.2182C59.277 15.4076 58.7253 15.5023 58.0909 15.5023ZM58.5738 13.9966C59.2367 13.9966 59.8167 13.8664 60.3139 13.606C60.8158 13.3455 61.2182 13.0094 61.5213 12.5974C61.829 12.1855 62.0208 11.7523 62.0966 11.2977L62.3522 9.76363C62.267 9.84885 62.0989 9.92698 61.848 9.998C61.597 10.0643 61.3129 10.1235 60.9957 10.1756C60.6832 10.2229 60.3778 10.2655 60.0795 10.3034C59.786 10.3365 59.5492 10.365 59.3693 10.3886C58.9242 10.4454 58.5004 10.5378 58.098 10.6656C57.7003 10.7887 57.3641 10.9757 57.0895 11.2267C56.8196 11.4729 56.6515 11.8091 56.5852 12.2352C56.4858 12.8176 56.6254 13.2579 57.0042 13.5562C57.383 13.8498 57.9062 13.9966 58.5738 13.9966ZM69.9002 19.5648C69.0858 19.5648 68.404 19.4606 67.8547 19.2523C67.3055 19.0487 66.8651 18.7788 66.5337 18.4426C66.2023 18.1112 65.9513 17.7561 65.7809 17.3773L67.2865 16.4398C67.4002 16.6386 67.547 16.8659 67.7269 17.1216C67.9068 17.382 68.1791 17.6069 68.5436 17.7963C68.913 17.9904 69.4314 18.0875 70.099 18.0875C70.975 18.0875 71.742 17.8744 72.4002 17.4483C73.0583 17.0222 73.4655 16.3545 73.6218 15.4454L73.9627 13.2295H73.8206C73.6691 13.4284 73.4584 13.6746 73.1885 13.9682C72.9186 14.257 72.5564 14.515 72.1019 14.7423C71.6473 14.9649 71.065 15.0761 70.3547 15.0761C69.4693 15.0761 68.7117 14.8678 68.082 14.4511C67.4523 14.0345 67.0001 13.4284 66.7255 12.6329C66.4556 11.8375 66.4153 10.8716 66.6047 9.73522C66.7894 8.61779 67.1445 7.64478 67.6701 6.81618C68.2004 5.98285 68.8538 5.33891 69.6303 4.88437C70.4068 4.42509 71.2543 4.19545 72.1729 4.19545C72.8831 4.19545 73.4276 4.31382 73.8064 4.55056C74.19 4.78257 74.4693 5.04772 74.6445 5.34601C74.8197 5.63957 74.9523 5.88105 75.0422 6.07045H75.2127L75.4968 4.33749H77.1161L75.2695 15.5591C75.1132 16.4966 74.7747 17.2589 74.2539 17.846C73.733 18.4379 73.0938 18.8711 72.3363 19.1457C71.5787 19.4251 70.7667 19.5648 69.9002 19.5648ZM70.7809 13.5704C71.4485 13.5704 72.0427 13.4166 72.5635 13.1088C73.0891 12.801 73.5247 12.3583 73.8704 11.7807C74.216 11.203 74.4551 10.5117 74.5877 9.70681C74.7203 8.92082 74.7108 8.22717 74.5593 7.62584C74.4078 7.02452 74.1213 6.5534 73.6999 6.21249C73.2832 5.87158 72.7364 5.70113 72.0593 5.70113C71.3443 5.70113 70.7264 5.88105 70.2056 6.2409C69.6895 6.60075 69.2704 7.0837 68.9485 7.68976C68.6265 8.29582 68.404 8.96817 68.2809 9.70681C68.1578 10.4644 68.1625 11.1344 68.2951 11.7168C68.4276 12.2944 68.6975 12.7489 69.1047 13.0804C69.5167 13.4071 70.0754 13.5704 70.7809 13.5704ZM82.9115 15.4739C81.8651 15.4739 81.001 15.2418 80.3192 14.7778C79.6374 14.3091 79.1615 13.6557 78.8917 12.8176C78.6218 11.9748 78.5792 10.9947 78.7638 9.87726C78.9485 8.75984 79.3154 7.77499 79.8647 6.92272C80.4139 6.06571 81.0981 5.3981 81.9172 4.91988C82.7364 4.43692 83.636 4.19545 84.6161 4.19545C85.1843 4.19545 85.7311 4.29014 86.2567 4.47954C86.7823 4.66893 87.2368 4.9767 87.6204 5.40283C88.0039 5.82423 88.2714 6.38295 88.4229 7.07897C88.5744 7.77499 88.565 8.632 88.3945 9.64999L88.2809 10.3602H79.8718L80.099 8.91135H86.8036C86.9125 8.29582 86.8841 7.74658 86.7184 7.26363C86.5574 6.78067 86.2757 6.39952 85.8732 6.12016C85.4755 5.84081 84.9712 5.70113 84.3604 5.70113C83.7307 5.70113 83.1436 5.87158 82.599 6.21249C82.0545 6.54866 81.6 6.9748 81.2354 7.4909C80.8708 8.00226 80.6436 8.5231 80.5536 9.0534L80.3547 10.3034C80.2127 11.2078 80.234 11.9275 80.4186 12.4625C80.608 12.9975 80.9371 13.3834 81.4059 13.6202C81.8746 13.8522 82.4617 13.9682 83.1672 13.9682C83.617 13.9682 84.0313 13.9066 84.4101 13.7835C84.7889 13.6557 85.1275 13.4663 85.4257 13.2153C85.724 12.9597 85.975 12.6424 86.1786 12.2636L87.7127 12.7182C87.4523 13.2674 87.0853 13.7504 86.6118 14.167C86.1431 14.579 85.5938 14.9009 84.9641 15.1329C84.3391 15.3602 83.6549 15.4739 82.9115 15.4739ZM92.8015 8.68408L91.7219 15.2466H90.0458L91.864 4.33749H93.4833L93.1992 6.04204H93.3412C93.6821 5.48806 94.1438 5.04298 94.7262 4.70681C95.3086 4.3659 96.0117 4.19545 96.8355 4.19545C97.5647 4.19545 98.1802 4.34696 98.6821 4.64999C99.1888 4.94829 99.5463 5.40283 99.7546 6.01363C99.9677 6.61969 99.9984 7.38673 99.8469 8.31476L98.6821 15.2466H97.006L98.1424 8.4284C98.2844 7.57613 98.1731 6.90851 97.8086 6.42556C97.4487 5.9426 96.8782 5.70113 96.0969 5.70113C95.5571 5.70113 95.0576 5.81713 94.5983 6.04914C94.1438 6.28115 93.7579 6.61969 93.4407 7.06476C93.1282 7.50984 92.9151 8.04961 92.8015 8.68408ZM108.307 4.33749L108.08 5.75795H102.427L102.654 4.33749H108.307ZM104.728 1.72385H106.404L104.671 12.1216C104.595 12.5951 104.607 12.9502 104.707 13.1869C104.811 13.4189 104.967 13.5752 105.175 13.6557C105.388 13.7314 105.618 13.7693 105.864 13.7693C106.049 13.7693 106.2 13.7598 106.319 13.7409C106.437 13.7172 106.532 13.6983 106.603 13.6841L106.717 15.1898C106.589 15.2324 106.416 15.275 106.198 15.3176C105.985 15.365 105.722 15.3886 105.41 15.3886C104.936 15.3886 104.491 15.2868 104.075 15.0832C103.658 14.8796 103.338 14.5695 103.116 14.1528C102.893 13.7362 102.834 13.2106 102.938 12.5761L104.728 1.72385ZM109.011 15.2466L110.829 4.33749H112.505L110.687 15.2466H109.011ZM112.178 2.4909C111.852 2.4909 111.57 2.37963 111.333 2.15709C111.101 1.93455 110.985 1.66704 110.985 1.35454C110.985 1.04204 111.101 0.774517 111.333 0.55198C111.57 0.329441 111.852 0.218172 112.178 0.218172C112.505 0.218172 112.784 0.329441 113.016 0.55198C113.253 0.774517 113.371 1.04204 113.371 1.35454C113.371 1.66704 113.253 1.93455 113.016 2.15709C112.784 2.37963 112.505 2.4909 112.178 2.4909ZM117.848 0.701127L115.433 15.2466H113.757L116.171 0.701127H117.848ZM123.048 15.4739C122.002 15.4739 121.138 15.2418 120.456 14.7778C119.774 14.3091 119.298 13.6557 119.028 12.8176C118.758 11.9748 118.716 10.9947 118.901 9.87726C119.085 8.75984 119.452 7.77499 120.001 6.92272C120.551 6.06571 121.235 5.3981 122.054 4.91988C122.873 4.43692 123.773 4.19545 124.753 4.19545C125.321 4.19545 125.868 4.29014 126.393 4.47954C126.919 4.66893 127.374 4.9767 127.757 5.40283C128.141 5.82423 128.408 6.38295 128.56 7.07897C128.711 7.77499 128.702 8.632 128.531 9.64999L128.418 10.3602H120.008L120.236 8.91135H126.94C127.049 8.29582 127.021 7.74658 126.855 7.26363C126.694 6.78067 126.412 6.39952 126.01 6.12016C125.612 5.84081 125.108 5.70113 124.497 5.70113C123.867 5.70113 123.28 5.87158 122.736 6.21249C122.191 6.54866 121.737 6.9748 121.372 7.4909C121.008 8.00226 120.78 8.5231 120.69 9.0534L120.491 10.3034C120.349 11.2078 120.371 11.9275 120.555 12.4625C120.745 12.9975 121.074 13.3834 121.543 13.6202C122.011 13.8522 122.598 13.9682 123.304 13.9682C123.754 13.9682 124.168 13.9066 124.547 13.7835C124.926 13.6557 125.264 13.4663 125.562 13.2153C125.861 12.9597 126.112 12.6424 126.315 12.2636L127.849 12.7182C127.589 13.2674 127.222 13.7504 126.749 14.167C126.28 14.579 125.731 14.9009 125.101 15.1329C124.476 15.3602 123.792 15.4739 123.048 15.4739ZM134.288 15.4739C133.374 15.4739 132.607 15.2442 131.986 14.7849C131.366 14.3209 130.928 13.6675 130.673 12.8247C130.422 11.9772 130.391 10.9757 130.58 9.82045C130.774 8.67461 131.137 7.68029 131.667 6.83749C132.202 5.99469 132.858 5.34365 133.634 4.88437C134.411 4.42509 135.258 4.19545 136.177 4.19545C136.887 4.19545 137.429 4.31382 137.803 4.55056C138.182 4.78257 138.457 5.04772 138.627 5.34601C138.798 5.63957 138.928 5.88105 139.018 6.07045H139.16L140.055 0.701127H141.731L139.316 15.2466H137.697L137.981 13.5704H137.782C137.626 13.7693 137.408 14.0203 137.129 14.3233C136.849 14.6216 136.48 14.8891 136.021 15.1258C135.566 15.3579 134.988 15.4739 134.288 15.4739ZM134.7 13.9682C135.372 13.9682 135.973 13.793 136.504 13.4426C137.039 13.0875 137.484 12.5974 137.839 11.9724C138.194 11.3427 138.44 10.6159 138.577 9.79204C138.715 8.97764 138.71 8.26505 138.563 7.65425C138.416 7.03872 138.135 6.5605 137.718 6.21959C137.301 5.87395 136.75 5.70113 136.063 5.70113C135.358 5.70113 134.745 5.88342 134.224 6.248C133.703 6.60785 133.279 7.09791 132.952 7.71817C132.626 8.3337 132.398 9.02499 132.271 9.79204C132.143 10.5686 132.14 11.274 132.263 11.9085C132.387 12.5382 132.647 13.0401 133.045 13.4142C133.447 13.7835 133.999 13.9682 134.7 13.9682ZM147.15 15.4739C146.103 15.4739 145.239 15.2418 144.557 14.7778C143.876 14.3091 143.4 13.6557 143.13 12.8176C142.86 11.9748 142.817 10.9947 143.002 9.87726C143.187 8.75984 143.554 7.77499 144.103 6.92272C144.652 6.06571 145.336 5.3981 146.156 4.91988C146.975 4.43692 147.874 4.19545 148.854 4.19545C149.423 4.19545 149.969 4.29014 150.495 4.47954C151.021 4.66893 151.475 4.9767 151.859 5.40283C152.242 5.82423 152.51 6.38295 152.661 7.07897C152.813 7.77499 152.803 8.632 152.633 9.64999L152.519 10.3602H144.11L144.337 8.91135H151.042C151.151 8.29582 151.122 7.74658 150.957 7.26363C150.796 6.78067 150.514 6.39952 150.111 6.12016C149.714 5.84081 149.209 5.70113 148.599 5.70113C147.969 5.70113 147.382 5.87158 146.837 6.21249C146.293 6.54866 145.838 6.9748 145.474 7.4909C145.109 8.00226 144.882 8.5231 144.792 9.0534L144.593 10.3034C144.451 11.2078 144.472 11.9275 144.657 12.4625C144.846 12.9975 145.175 13.3834 145.644 13.6202C146.113 13.8522 146.7 13.9682 147.406 13.9682C147.855 13.9682 148.27 13.9066 148.648 13.7835C149.027 13.6557 149.366 13.4663 149.664 13.2153C149.962 12.9597 150.213 12.6424 150.417 12.2636L151.951 12.7182C151.691 13.2674 151.324 13.7504 150.85 14.167C150.381 14.579 149.832 14.9009 149.202 15.1329C148.577 15.3602 147.893 15.4739 147.15 15.4739ZM163.432 6.78067L161.841 7.20681C161.784 6.95113 161.685 6.70492 161.543 6.46817C161.405 6.2267 161.192 6.0302 160.903 5.87868C160.619 5.72243 160.231 5.64431 159.739 5.64431C159.071 5.64431 158.491 5.79819 157.999 6.10596C157.506 6.40899 157.224 6.79488 157.153 7.26363C157.082 7.67556 157.177 8.00463 157.437 8.25084C157.698 8.49706 158.133 8.69829 158.744 8.85454L160.307 9.25226C161.244 9.49374 161.912 9.85596 162.31 10.3389C162.712 10.8171 162.849 11.4398 162.722 12.2068C162.617 12.8318 162.345 13.3905 161.905 13.8829C161.464 14.3754 160.901 14.7636 160.214 15.0477C159.528 15.3318 158.763 15.4739 157.92 15.4739C156.798 15.4739 155.913 15.2324 155.264 14.7494C154.615 14.2617 154.27 13.5562 154.227 12.6329L155.903 12.2352C155.946 12.8176 156.154 13.2579 156.528 13.5562C156.907 13.8498 157.437 13.9966 158.119 13.9966C158.901 13.9966 159.552 13.8309 160.072 13.4994C160.593 13.1632 160.889 12.7608 160.96 12.292C161.031 11.9085 160.955 11.5889 160.733 11.3332C160.515 11.0775 160.136 10.8858 159.597 10.7579L157.864 10.3318C156.898 10.0903 156.221 9.72101 155.832 9.22385C155.449 8.7267 155.321 8.1017 155.449 7.34885C155.553 6.73332 155.818 6.18882 156.244 5.71533C156.675 5.24185 157.215 4.87016 157.864 4.60027C158.517 4.33039 159.227 4.19545 159.994 4.19545C161.074 4.19545 161.881 4.43219 162.416 4.90567C162.951 5.37442 163.29 5.99942 163.432 6.78067ZM164.733 15.2466L166.551 4.33749H168.228L166.409 15.2466H164.733ZM167.901 2.4909C167.574 2.4909 167.292 2.37963 167.056 2.15709C166.824 1.93455 166.708 1.66704 166.708 1.35454C166.708 1.04204 166.824 0.774517 167.056 0.55198C167.292 0.329441 167.574 0.218172 167.901 0.218172C168.228 0.218172 168.507 0.329441 168.739 0.55198C168.976 0.774517 169.094 1.04204 169.094 1.35454C169.094 1.66704 168.976 1.93455 168.739 2.15709C168.507 2.37963 168.228 2.4909 167.901 2.4909ZM173.201 19.5648C172.387 19.5648 171.705 19.4606 171.156 19.2523C170.606 19.0487 170.166 18.7788 169.834 18.4426C169.503 18.1112 169.252 17.7561 169.082 17.3773L170.587 16.4398C170.701 16.6386 170.848 16.8659 171.028 17.1216C171.208 17.382 171.48 17.6069 171.844 17.7963C172.214 17.9904 172.732 18.0875 173.4 18.0875C174.276 18.0875 175.043 17.8744 175.701 17.4483C176.359 17.0222 176.766 16.3545 176.923 15.4454L177.263 13.2295H177.121C176.97 13.4284 176.759 13.6746 176.489 13.9682C176.219 14.257 175.857 14.515 175.403 14.7423C174.948 14.9649 174.366 15.0761 173.656 15.0761C172.77 15.0761 172.013 14.8678 171.383 14.4511C170.753 14.0345 170.301 13.4284 170.026 12.6329C169.756 11.8375 169.716 10.8716 169.906 9.73522C170.09 8.61779 170.445 7.64478 170.971 6.81618C171.501 5.98285 172.155 5.33891 172.931 4.88437C173.708 4.42509 174.555 4.19545 175.474 4.19545C176.184 4.19545 176.728 4.31382 177.107 4.55056C177.491 4.78257 177.77 5.04772 177.945 5.34601C178.12 5.63957 178.253 5.88105 178.343 6.07045H178.513L178.798 4.33749H180.417L178.57 15.5591C178.414 16.4966 178.075 17.2589 177.555 17.846C177.034 18.4379 176.395 18.8711 175.637 19.1457C174.879 19.4251 174.067 19.5648 173.201 19.5648ZM174.082 13.5704C174.749 13.5704 175.343 13.4166 175.864 13.1088C176.39 12.801 176.825 12.3583 177.171 11.7807C177.517 11.203 177.756 10.5117 177.888 9.70681C178.021 8.92082 178.012 8.22717 177.86 7.62584C177.709 7.02452 177.422 6.5534 177.001 6.21249C176.584 5.87158 176.037 5.70113 175.36 5.70113C174.645 5.70113 174.027 5.88105 173.506 6.2409C172.99 6.60075 172.571 7.0837 172.249 7.68976C171.927 8.29582 171.705 8.96817 171.582 9.70681C171.459 10.4644 171.463 11.1344 171.596 11.7168C171.728 12.2944 171.998 12.7489 172.406 13.0804C172.817 13.4071 173.376 13.5704 174.082 13.5704ZM184.423 8.68408L183.343 15.2466H181.667L183.485 4.33749H185.104L184.82 6.04204H184.962C185.303 5.48806 185.765 5.04298 186.347 4.70681C186.93 4.3659 187.633 4.19545 188.457 4.19545C189.186 4.19545 189.801 4.34696 190.303 4.64999C190.81 4.94829 191.167 5.40283 191.376 6.01363C191.589 6.61969 191.62 7.38673 191.468 8.31476L190.303 15.2466H188.627L189.763 8.4284C189.906 7.57613 189.794 6.90851 189.43 6.42556C189.07 5.9426 188.499 5.70113 187.718 5.70113C187.178 5.70113 186.679 5.81713 186.219 6.04914C185.765 6.28115 185.379 6.61969 185.062 7.06476C184.749 7.50984 184.536 8.04961 184.423 8.68408ZM201.122 19.0818C199.673 19.0818 198.425 18.8829 197.379 18.4852C196.332 18.0922 195.492 17.5122 194.858 16.7452C194.228 15.9781 193.811 15.0382 193.608 13.9256C193.404 12.8129 193.418 11.5392 193.65 10.1045C193.877 8.71723 194.28 7.4767 194.858 6.38295C195.435 5.2892 196.164 4.36117 197.045 3.59885C197.93 2.83181 198.948 2.24705 200.099 1.84459C201.25 1.44213 202.509 1.2409 203.877 1.2409C205.208 1.2409 206.337 1.4587 207.265 1.89431C208.193 2.32518 208.932 2.90993 209.481 3.64857C210.035 4.38247 210.404 5.2087 210.589 6.12726C210.778 7.04582 210.795 7.99279 210.639 8.96817C210.525 9.65473 210.376 10.3507 210.191 11.0562C210.011 11.7617 209.765 12.4104 209.453 13.0023C209.14 13.5894 208.733 14.0629 208.231 14.4227C207.729 14.7826 207.102 14.9625 206.349 14.9625C206.018 14.9625 205.66 14.9104 205.277 14.8062C204.893 14.7021 204.566 14.5293 204.296 14.2878C204.027 14.0463 203.896 13.722 203.906 13.3148H203.821C203.669 13.5894 203.456 13.8498 203.181 14.096C202.907 14.3422 202.568 14.5387 202.166 14.6855C201.763 14.8323 201.292 14.8962 200.752 14.8773C200.142 14.8536 199.623 14.7163 199.197 14.4653C198.776 14.2097 198.444 13.864 198.203 13.4284C197.961 12.9881 197.81 12.4791 197.748 11.9014C197.687 11.319 197.713 10.6917 197.826 10.0193C197.935 9.3801 198.127 8.79535 198.402 8.26505C198.676 7.73474 199.015 7.27073 199.417 6.873C199.824 6.47527 200.274 6.15804 200.767 5.9213C201.259 5.67982 201.775 5.53067 202.315 5.47385C202.798 5.42651 203.226 5.44781 203.6 5.53778C203.975 5.623 204.273 5.75321 204.495 5.9284C204.718 6.09885 204.843 6.28825 204.872 6.49658H204.957L205.099 5.70113H206.605L205.525 12.1216C205.468 12.5193 205.528 12.8697 205.703 13.1727C205.878 13.4757 206.179 13.6273 206.605 13.6273C207.088 13.6273 207.483 13.4615 207.791 13.1301C208.103 12.7987 208.364 12.2873 208.572 11.596C208.785 10.9047 208.982 10.0193 209.162 8.93976C209.27 8.30529 209.289 7.68029 209.218 7.06476C209.147 6.4445 208.982 5.86448 208.721 5.32471C208.466 4.78493 208.106 4.30908 207.642 3.89715C207.178 3.48522 206.607 3.16325 205.93 2.93124C205.258 2.6945 204.469 2.57613 203.565 2.57613C202.452 2.57613 201.427 2.74895 200.49 3.09459C199.552 3.4355 198.724 3.93503 198.004 4.59317C197.284 5.24658 196.688 6.04204 196.214 6.97954C195.741 7.9123 195.407 8.97291 195.213 10.1614C195.014 11.3687 194.995 12.4412 195.156 13.3787C195.322 14.3162 195.665 15.1069 196.186 15.7508C196.711 16.3948 197.41 16.8825 198.281 17.2139C199.152 17.5501 200.194 17.7182 201.406 17.7182C201.927 17.7182 202.448 17.6685 202.968 17.569C203.489 17.4696 203.953 17.3607 204.36 17.2423C204.768 17.1239 205.061 17.0364 205.241 16.9795L205.44 18.2864C205.118 18.4095 204.711 18.5326 204.218 18.6557C203.726 18.7788 203.207 18.8806 202.663 18.9611C202.118 19.0416 201.605 19.0818 201.122 19.0818ZM201.235 13.4284C201.87 13.4284 202.403 13.3006 202.833 13.0449C203.264 12.7892 203.612 12.4033 203.877 11.8872C204.143 11.3711 204.341 10.7201 204.474 9.93408C204.607 9.13863 204.609 8.51836 204.481 8.07329C204.358 7.62821 204.117 7.31571 203.757 7.13579C203.402 6.95586 202.94 6.8659 202.372 6.8659C201.832 6.8659 201.349 7.00795 200.923 7.29204C200.497 7.57139 200.144 7.94545 199.865 8.4142C199.585 8.87821 199.398 9.38484 199.304 9.93408C199.209 10.5401 199.197 11.1107 199.268 11.6457C199.344 12.176 199.536 12.6069 199.843 12.9383C200.156 13.265 200.62 13.4284 201.235 13.4284ZM215.818 19.5648C215.004 19.5648 214.322 19.4606 213.773 19.2523C213.223 19.0487 212.783 18.7788 212.452 18.4426C212.12 18.1112 211.869 17.7561 211.699 17.3773L213.205 16.4398C213.318 16.6386 213.465 16.8659 213.645 17.1216C213.825 17.382 214.097 17.6069 214.462 17.7963C214.831 17.9904 215.349 18.0875 216.017 18.0875C216.893 18.0875 217.66 17.8744 218.318 17.4483C218.976 17.0222 219.383 16.3545 219.54 15.4454L219.881 13.2295H219.739C219.587 13.4284 219.376 13.6746 219.107 13.9682C218.837 14.257 218.474 14.515 218.02 14.7423C217.565 14.9649 216.983 15.0761 216.273 15.0761C215.387 15.0761 214.63 14.8678 214 14.4511C213.37 14.0345 212.918 13.4284 212.643 12.6329C212.374 11.8375 212.333 10.8716 212.523 9.73522C212.707 8.61779 213.062 7.64478 213.588 6.81618C214.118 5.98285 214.772 5.33891 215.548 4.88437C216.325 4.42509 217.172 4.19545 218.091 4.19545C218.801 4.19545 219.346 4.31382 219.724 4.55056C220.108 4.78257 220.387 5.04772 220.562 5.34601C220.738 5.63957 220.87 5.88105 220.96 6.07045H221.131L221.415 4.33749H223.034L221.187 15.5591C221.031 16.4966 220.693 17.2589 220.172 17.846C219.651 18.4379 219.012 18.8711 218.254 19.1457C217.497 19.4251 216.685 19.5648 215.818 19.5648ZM216.699 13.5704C217.366 13.5704 217.961 13.4166 218.482 13.1088C219.007 12.801 219.443 12.3583 219.788 11.7807C220.134 11.203 220.373 10.5117 220.506 9.70681C220.638 8.92082 220.629 8.22717 220.477 7.62584C220.326 7.02452 220.039 6.5534 219.618 6.21249C219.201 5.87158 218.654 5.70113 217.977 5.70113C217.262 5.70113 216.644 5.88105 216.124 6.2409C215.607 6.60075 215.188 7.0837 214.866 7.68976C214.544 8.29582 214.322 8.96817 214.199 9.70681C214.076 10.4644 214.08 11.1344 214.213 11.7168C214.346 12.2944 214.615 12.7489 215.023 13.0804C215.435 13.4071 215.993 13.5704 216.699 13.5704ZM224.284 15.2466L226.102 4.33749H227.722L227.437 6.04204H227.58C227.906 5.45965 228.349 5.00747 228.908 4.6855C229.471 4.3588 230.108 4.19545 230.818 4.19545C231.528 4.19545 232.099 4.3588 232.53 4.6855C232.961 5.00747 233.261 5.45965 233.432 6.04204H233.545C233.915 5.47385 234.407 5.02404 235.023 4.6926C235.643 4.36117 236.344 4.19545 237.125 4.19545C238.091 4.19545 238.834 4.50084 239.355 5.11164C239.881 5.72243 240.037 6.66704 239.824 7.94545L238.602 15.2466H236.926L238.148 7.94545C238.276 7.13579 238.148 6.5605 237.764 6.21959C237.385 5.87395 236.898 5.70113 236.301 5.70113C235.534 5.70113 234.902 5.93077 234.405 6.39005C233.908 6.84933 233.602 7.43408 233.489 8.14431L232.295 15.2466H230.591L231.841 7.77499C231.94 7.14999 231.822 6.6481 231.486 6.26931C231.15 5.89052 230.662 5.70113 230.023 5.70113C229.587 5.70113 229.161 5.8195 228.744 6.05624C228.328 6.28825 227.97 6.61022 227.672 7.02215C227.374 7.42935 227.182 7.8981 227.097 8.4284L225.96 15.2466H224.284ZM244.849 15.5023C244.157 15.5023 243.551 15.3721 243.031 15.1116C242.51 14.8465 242.124 14.4653 241.873 13.9682C241.622 13.4663 241.553 12.8602 241.667 12.15C241.776 11.525 241.986 11.0184 242.299 10.6301C242.611 10.2371 242.99 9.92935 243.435 9.70681C243.885 9.47954 244.368 9.31145 244.884 9.20255C245.405 9.08891 245.923 9.00132 246.44 8.93976C247.112 8.85454 247.659 8.78825 248.08 8.7409C248.502 8.69355 248.819 8.61543 249.032 8.50653C249.245 8.39762 249.375 8.2106 249.423 7.94545V7.88863C249.536 7.1926 249.444 6.65046 249.146 6.26221C248.847 5.86921 248.315 5.67272 247.548 5.67272C246.752 5.67272 246.087 5.84791 245.552 6.19829C245.017 6.54867 244.621 6.92272 244.366 7.32045L242.888 6.75226C243.277 6.08938 243.741 5.57329 244.281 5.20397C244.82 4.82991 245.386 4.5695 245.978 4.42272C246.57 4.2712 247.14 4.19545 247.69 4.19545C248.04 4.19545 248.435 4.23806 248.876 4.32329C249.316 4.40378 249.728 4.57187 250.111 4.82755C250.5 5.08323 250.791 5.46912 250.985 5.98522C251.184 6.50132 251.212 7.1926 251.07 8.05908L249.877 15.2466H248.201L248.457 13.7693H248.371C248.22 14.0061 247.988 14.2594 247.675 14.5293C247.368 14.7991 246.977 15.0288 246.504 15.2182C246.035 15.4076 245.483 15.5023 244.849 15.5023ZM245.332 13.9966C245.995 13.9966 246.575 13.8664 247.072 13.606C247.574 13.3455 247.976 13.0094 248.279 12.5974C248.587 12.1855 248.779 11.7523 248.854 11.2977L249.11 9.76363C249.025 9.84885 248.857 9.92698 248.606 9.998C248.355 10.0643 248.071 10.1235 247.754 10.1756C247.441 10.2229 247.136 10.2655 246.837 10.3034C246.544 10.3365 246.307 10.365 246.127 10.3886C245.682 10.4454 245.258 10.5378 244.856 10.6656C244.458 10.7887 244.122 10.9757 243.847 11.2267C243.577 11.4729 243.409 11.8091 243.343 12.2352C243.244 12.8176 243.383 13.2579 243.762 13.5562C244.141 13.8498 244.664 13.9966 245.332 13.9966ZM252.936 15.2466L254.755 4.33749H256.431L254.613 15.2466H252.936ZM256.104 2.4909C255.777 2.4909 255.496 2.37963 255.259 2.15709C255.027 1.93455 254.911 1.66704 254.911 1.35454C254.911 1.04204 255.027 0.774517 255.259 0.55198C255.496 0.329441 255.777 0.218172 256.104 0.218172C256.431 0.218172 256.71 0.329441 256.942 0.55198C257.179 0.774517 257.297 1.04204 257.297 1.35454C257.297 1.66704 257.179 1.93455 256.942 2.15709C256.71 2.37963 256.431 2.4909 256.104 2.4909ZM261.773 0.701127L259.359 15.2466H257.682L260.097 0.701127H261.773ZM263.849 15.3602C263.489 15.3602 263.189 15.2371 262.947 14.9909C262.706 14.74 262.58 14.4369 262.571 14.0818C262.566 13.7267 262.691 13.4308 262.947 13.194C263.203 12.9525 263.503 12.8318 263.849 12.8318C264.199 12.8318 264.502 12.9549 264.758 13.2011C265.014 13.4473 265.137 13.7409 265.127 14.0818C265.123 14.3186 265.061 14.534 264.943 14.7281C264.829 14.9222 264.675 15.0761 264.481 15.1898C264.292 15.3034 264.081 15.3602 263.849 15.3602ZM272.34 15.4739C271.312 15.4739 270.47 15.2324 269.811 14.7494C269.158 14.2665 268.703 13.6012 268.448 12.7537C268.192 11.9061 268.154 10.9379 268.334 9.84885C268.514 8.7409 268.879 7.76315 269.428 6.91562C269.977 6.06334 270.661 5.3981 271.48 4.91988C272.3 4.43692 273.202 4.19545 274.186 4.19545C274.953 4.19545 275.621 4.33749 276.189 4.62158C276.757 4.90567 277.195 5.3034 277.503 5.81476C277.811 6.32613 277.955 6.92272 277.936 7.60454H276.26C276.213 7.10738 276 6.66704 275.621 6.28351C275.247 5.89526 274.693 5.70113 273.959 5.70113C273.306 5.70113 272.704 5.87158 272.155 6.21249C271.606 6.54866 271.144 7.02452 270.77 7.64005C270.396 8.25084 270.143 8.96817 270.01 9.79204C269.868 10.6348 269.88 11.3687 270.046 11.9937C270.211 12.6187 270.512 13.1041 270.948 13.4497C271.383 13.7954 271.933 13.9682 272.595 13.9682C273.031 13.9682 273.438 13.8924 273.817 13.7409C274.196 13.5894 274.532 13.3716 274.826 13.0875C275.119 12.8034 275.351 12.4625 275.522 12.0648H277.198C276.989 12.7087 276.656 13.2887 276.196 13.8048C275.737 14.3162 275.181 14.7234 274.527 15.0264C273.874 15.3247 273.145 15.4739 272.34 15.4739ZM283.611 15.4739C282.607 15.4739 281.767 15.2347 281.09 14.7565C280.413 14.2783 279.935 13.6083 279.655 12.7466C279.381 11.8848 279.336 10.8811 279.52 9.73522C279.7 8.61779 280.058 7.64478 280.593 6.81618C281.132 5.98285 281.802 5.33891 282.603 4.88437C283.408 4.42509 284.293 4.19545 285.259 4.19545C286.263 4.19545 287.101 4.43692 287.773 4.91988C288.45 5.3981 288.928 6.07045 289.208 6.93692C289.487 7.79867 289.534 8.80719 289.35 9.96249C289.17 11.0704 288.808 12.0387 288.263 12.8673C287.723 13.6912 287.053 14.3328 286.253 14.792C285.458 15.2466 284.577 15.4739 283.611 15.4739ZM283.64 13.9682C284.407 13.9682 285.072 13.7717 285.635 13.3787C286.203 12.9857 286.663 12.4672 287.013 11.8233C287.368 11.1793 287.607 10.4833 287.73 9.73522C287.844 9.02499 287.839 8.36448 287.716 7.75368C287.593 7.13815 287.33 6.64336 286.928 6.26931C286.525 5.89052 285.96 5.70113 285.23 5.70113C284.463 5.70113 283.793 5.89999 283.22 6.29772C282.652 6.69545 282.193 7.21865 281.843 7.86732C281.492 8.51599 281.258 9.21438 281.14 9.96249C281.026 10.6727 281.028 11.3332 281.147 11.944C281.27 12.5501 281.533 13.0401 281.935 13.4142C282.342 13.7835 282.91 13.9682 283.64 13.9682ZM291.042 15.2466L292.86 4.33749H294.479L294.195 6.04204H294.337C294.664 5.45965 295.107 5.00747 295.665 4.6855C296.229 4.3588 296.866 4.19545 297.576 4.19545C298.286 4.19545 298.857 4.3588 299.288 4.6855C299.718 5.00747 300.019 5.45965 300.19 6.04204H300.303C300.673 5.47385 301.165 5.02404 301.781 4.6926C302.401 4.36117 303.102 4.19545 303.883 4.19545C304.849 4.19545 305.592 4.50084 306.113 5.11164C306.638 5.72243 306.795 6.66704 306.582 7.94545L305.36 15.2466H303.684L304.906 7.94545C305.033 7.13579 304.906 6.5605 304.522 6.21959C304.143 5.87395 303.656 5.70113 303.059 5.70113C302.292 5.70113 301.66 5.93077 301.163 6.39005C300.665 6.84933 300.36 7.43408 300.246 8.14431L299.053 15.2466H297.349L298.599 7.77499C298.698 7.14999 298.58 6.6481 298.244 6.26931C297.907 5.89052 297.42 5.70113 296.781 5.70113C296.345 5.70113 295.919 5.8195 295.502 6.05624C295.085 6.28825 294.728 6.61022 294.43 7.02215C294.131 7.42935 293.94 7.8981 293.854 8.4284L292.718 15.2466H291.042Z" fill="white"/>
</svg>
