<svg width="41" height="41" viewBox="0 0 41 41" fill="none" xmlns="http://www.w3.org/2000/svg">
<path fill-rule="evenodd" clip-rule="evenodd" d="M36.0455 0.246582C38.7427 0.246582 40.9325 2.43643 40.9325 5.13361V35.3596C40.9325 38.0567 38.7427 40.2466 36.0455 40.2466H5.81953C3.12234 40.2466 0.932495 38.0567 0.932495 35.3596V5.13361C0.932495 2.43643 3.12226 0.246582 5.81953 0.246582L36.0455 0.246582ZM20.9325 6.57471C17.2194 6.57471 16.7538 6.59041 15.2956 6.65697C13.8404 6.72338 12.8466 6.95447 11.9769 7.29252C11.0778 7.64189 10.3154 8.10939 9.55531 8.86939C8.79523 9.62947 8.32773 10.392 7.97835 11.291C7.64039 12.1606 7.40929 13.1545 7.34281 14.6097C7.27632 16.0679 7.26062 16.5335 7.26062 20.2466C7.26062 23.9596 7.27632 24.4253 7.34281 25.8835C7.40929 27.3387 7.64039 28.3325 7.97835 29.2022C8.32773 30.1012 8.79523 30.8637 9.55531 31.6238C10.3154 32.3838 11.0778 32.8513 11.9769 33.2007C12.8466 33.5387 13.8404 33.7698 15.2956 33.8362C16.7538 33.9028 17.2194 33.9185 20.9325 33.9185C24.6455 33.9185 25.1112 33.9028 26.5694 33.8362C28.0246 33.7698 29.0184 33.5387 29.8881 33.2007C30.7871 32.8513 31.5496 32.3838 32.3097 31.6238C33.0698 30.8637 33.5373 30.1012 33.8866 29.2022C34.2246 28.3325 34.4557 27.3387 34.5221 25.8835C34.5887 24.4253 34.6044 23.9596 34.6044 20.2466C34.6044 16.5335 34.5887 16.0679 34.5221 14.6097C34.4557 13.1545 34.2246 12.1606 33.8866 11.291C33.5373 10.392 33.0698 9.62947 32.3097 8.86939C31.5496 8.10939 30.7871 7.64189 29.8881 7.29252C29.0184 6.95447 28.0246 6.72338 26.5694 6.65697C25.1112 6.59041 24.6455 6.57471 20.9325 6.57471ZM20.9325 9.03814C24.583 9.03814 25.0155 9.05205 26.4571 9.11783C27.7901 9.17869 28.514 9.40143 28.9958 9.58854C29.634 9.83658 30.0894 10.1329 30.5678 10.6113C31.0462 11.0897 31.3425 11.5452 31.5905 12.1833C31.7777 12.6651 32.0005 13.389 32.0612 14.722C32.127 16.1636 32.141 16.596 32.141 20.2466C32.141 23.8971 32.127 24.3295 32.0612 25.7712C32.0005 27.1042 31.7777 27.8281 31.5905 28.3099C31.3425 28.9481 31.0462 29.4035 30.5678 29.8819C30.0894 30.3603 29.634 30.6566 28.9958 30.9046C28.514 31.0918 27.7901 31.3146 26.4571 31.3753C25.0157 31.4411 24.5833 31.4551 20.9325 31.4551C17.2817 31.4551 16.8494 31.4411 15.4079 31.3753C14.0749 31.3146 13.351 31.0918 12.8692 30.9046C12.231 30.6566 11.7756 30.3603 11.2972 29.8819C10.8187 29.4035 10.5224 28.9481 10.2744 28.3099C10.0873 27.8281 9.86453 27.1042 9.80367 25.7712C9.73789 24.3295 9.72398 23.8971 9.72398 20.2466C9.72398 16.596 9.73789 16.1636 9.80367 14.722C9.86453 13.389 10.0873 12.6651 10.2744 12.1833C10.5224 11.5452 10.8187 11.0897 11.2972 10.6113C11.7756 10.1329 12.231 9.83658 12.8692 9.58854C13.351 9.40143 14.0749 9.17869 15.4079 9.11783C16.8495 9.05205 17.2819 9.03814 20.9325 9.03814ZM20.9325 13.2259C17.0551 13.2259 13.9118 16.3692 13.9118 20.2466C13.9118 24.124 17.0551 27.2673 20.9325 27.2673C24.8099 27.2673 27.9532 24.124 27.9532 20.2466C27.9532 16.3692 24.8099 13.2259 20.9325 13.2259ZM20.9325 24.8038C18.4155 24.8038 16.3752 22.7635 16.3752 20.2466C16.3752 17.7296 18.4155 15.6893 20.9325 15.6893C23.4494 15.6893 25.4898 17.7296 25.4898 20.2466C25.4898 22.7635 23.4494 24.8038 20.9325 24.8038ZM29.8712 12.9485C29.8712 13.8546 29.1366 14.5891 28.2305 14.5891C27.3245 14.5891 26.59 13.8546 26.59 12.9485C26.59 12.0424 27.3245 11.3079 28.2305 11.3079C29.1366 11.3079 29.8712 12.0424 29.8712 12.9485Z" fill="#008043"/>
</svg>
