<svg width="41" height="41" viewBox="0 0 41 41" fill="none" xmlns="http://www.w3.org/2000/svg">
<path d="M22.3061 18.2882V18.2263C22.2932 18.2472 22.2795 18.2681 22.2659 18.2882H22.3061Z" fill="#008043"/>
<path d="M37.7422 0.246582H3.86868C2.24739 0.246582 0.932495 1.53011 0.932495 3.112V37.382C0.932495 38.9631 2.24739 40.2466 3.86868 40.2466H37.7422C39.3659 40.2466 40.6808 38.9623 40.6808 37.382V3.112C40.6808 1.5293 39.3651 0.246582 37.7422 0.246582ZM12.9804 33.7316H6.97697V15.6698H12.9804V33.7316ZM9.9791 13.2025H9.93889C7.92514 13.2025 6.62231 11.8152 6.62231 10.0821C6.62231 8.31044 7.96535 6.96177 10.0185 6.96177C12.0725 6.96177 13.3359 8.31044 13.3761 10.0821C13.3761 11.8152 12.0717 13.2025 9.9791 13.2025ZM34.6291 33.7316H28.6256V24.0666C28.6256 21.6395 27.7571 19.9828 25.5849 19.9828C23.9266 19.9828 22.939 21.0999 22.5039 22.1791C22.3455 22.5643 22.3069 23.1031 22.3069 23.6436V33.7308H16.3034C16.3034 33.7308 16.3823 17.3619 16.3034 15.669H22.3069V18.2256C23.1047 16.9951 24.5314 15.2428 27.7185 15.2428C31.6679 15.2428 34.6299 17.8251 34.6299 23.3734L34.6291 33.7316Z" fill="#008043"/>
</svg>
