<svg width="40" height="56" viewBox="0 0 40 56" fill="none" xmlns="http://www.w3.org/2000/svg">
<path d="M39.8902 52.4699C39.0953 52.4699 38.3343 52.4699 37.5732 52.4699C36.5077 52.4192 35.4338 52.3349 34.3683 52.2251C31.5793 51.9292 28.8191 51.407 26.1151 50.6638C22.3284 49.6315 18.6694 48.1793 15.2066 46.3344C12.6699 44.979 10.2489 43.4181 7.96806 41.6674C7.30002 41.161 6.68272 40.5871 6.04005 40.0385C5.96686 39.9647 5.89903 39.8857 5.8371 39.8022L39.831 5.82495C39.9325 6.15409 39.9579 52.0648 39.8902 52.4699Z" fill="#008043"/>
<path d="M0.932495 33.4896V0.246582H34.233L1.07625 33.4306C1.03292 33.4599 0.983977 33.48 0.932495 33.4896Z" fill="#008043"/>
<path d="M29.2354 55.2466H0.99166C0.932466 54.9765 0.932466 41.0176 0.974747 40.5535C8.7925 48.0486 18.6007 53.1481 29.2354 55.2466Z" fill="#008043"/>
</svg>
