<svg width="25" height="25" viewBox="0 0 25 25" fill="none" xmlns="http://www.w3.org/2000/svg">
<mask id="mask0_1_108" style="mask-type:alpha" maskUnits="userSpaceOnUse" x="0" y="0" width="25" height="25">
<rect x="0.932495" y="0.246582" width="24" height="24" fill="#D9D9D9"/>
</mask>
<g mask="url(#mask0_1_108)">
<path d="M5.10205 20.727C4.36363 20.727 3.73736 20.4699 3.22323 19.9558C2.70909 19.4417 2.45203 18.8154 2.45203 18.077V6.41614C2.45203 5.67772 2.70909 5.05145 3.22323 4.53731C3.73736 4.02318 4.36363 3.76611 5.10205 3.76611H20.7629C21.5013 3.76611 22.1276 4.02318 22.6417 4.53731C23.1559 5.05145 23.4129 5.67772 23.4129 6.41614V18.077C23.4129 18.8154 23.1559 19.4417 22.6417 19.9558C22.1276 20.4699 21.5013 20.727 20.7629 20.727H5.10205ZM12.9325 13.8542L20.7629 8.85421V6.41614L12.9325 11.4161L5.10205 6.41614V8.85421L12.9325 13.8542Z" fill="#008043"/>
</g>
</svg>
