<svg width="48" height="48" viewBox="0 0 48 48" fill="none" xmlns="http://www.w3.org/2000/svg">
<mask id="mask0_1_102" style="mask-type:alpha" maskUnits="userSpaceOnUse" x="0" y="0" width="48" height="48">
<rect width="48" height="48" fill="#D9D9D9"/>
</mask>
<g mask="url(#mask0_1_102)">
<path d="M24 39.8C22.049 39.8 20.2113 39.475 18.4867 38.825C16.7622 38.175 15.2 37.2667 13.8 36.1L10.7 39.15C10.4 39.45 10.0583 39.6 9.675 39.6C9.29167 39.6 8.95 39.45 8.65 39.15C8.35 38.85 8.2 38.5084 8.2 38.125C8.2 37.7417 8.35 37.4 8.65 37.1L11.7 34C10.5219 32.5946 9.6107 31.0349 8.9664 29.321C8.32213 27.607 8 25.7667 8 23.8C8 19.3334 9.55 15.55 12.65 12.45C15.75 9.35005 19.5333 7.80005 24 7.80005H40V23.8C40 28.2667 38.45 32.05 35.35 35.15C32.25 38.25 28.4667 39.8 24 39.8ZM24 36.8C27.6111 36.8 30.6805 35.5362 33.2083 33.0084C35.7361 30.4806 37 27.4111 37 23.8V10.8H24C20.3889 10.8 17.3195 12.0639 14.7917 14.5917C12.2639 17.1195 11 20.1889 11 23.8C11 25.3246 11.25 26.7807 11.75 28.1684C12.25 29.5562 12.9333 30.8 13.8 31.9L24.65 21.1C24.95 20.8 25.2917 20.65 25.675 20.65C26.0583 20.65 26.4 20.8 26.7 21.1C27 21.3934 27.15 21.7417 27.15 22.1451C27.15 22.5484 27 22.9 26.7 23.2L15.9 34C17 34.8667 18.2439 35.55 19.6316 36.05C21.0193 36.55 22.4755 36.8 24 36.8Z" fill="white"/>
</g>
</svg>
